<svg width="14" height="14" viewBox="0 0 14 14" fill="none" xmlns="http://www.w3.org/2000/svg">
<g clip-path="url(#clip0_696_371)">
<path d="M12.25 4.375V12.25H4.375V4.375H12.25ZM12.25 3.5H4.375C4.14294 3.5 3.92038 3.59219 3.75628 3.75628C3.59219 3.92038 3.5 4.14294 3.5 4.375V12.25C3.5 12.4821 3.59219 12.7046 3.75628 12.8687C3.92038 13.0328 4.14294 13.125 4.375 13.125H12.25C12.4821 13.125 12.7046 13.0328 12.8687 12.8687C13.0328 12.7046 13.125 12.4821 13.125 12.25V4.375C13.125 4.14294 13.0328 3.92038 12.8687 3.75628C12.7046 3.59219 12.4821 3.5 12.25 3.5Z" fill="white" fill-opacity="0.4"/>
<path d="M1.75 7.875H0.875V1.75C0.875 1.51794 0.967187 1.29538 1.13128 1.13128C1.29538 0.967187 1.51794 0.875 1.75 0.875H7.875V1.75H1.75V7.875Z" fill="white" fill-opacity="0.4"/>
</g>
<defs>
<clipPath id="clip0_696_371">
<rect width="14" height="14" fill="white"/>
</clipPath>
</defs>
</svg>
