<svg width="16" height="16" viewBox="0 0 16 16" fill="none" xmlns="http://www.w3.org/2000/svg">
<path d="M8.69775 4.26089C8.87163 4.29155 9.0507 4.26996 9.21231 4.19885C9.37392 4.12774 9.51081 4.0103 9.60567 3.86139C9.70054 3.71248 9.74912 3.53878 9.74527 3.36227C9.74142 3.18575 9.68531 3.01433 9.58404 2.8697C9.48276 2.72507 9.34088 2.61372 9.17632 2.54973C9.01176 2.48573 8.83193 2.47198 8.65955 2.51019C8.48717 2.5484 8.33 2.63688 8.20791 2.76442C8.08581 2.89196 8.00428 3.05284 7.97362 3.22672C7.95326 3.34217 7.95584 3.46051 7.98121 3.57496C8.00658 3.68942 8.05425 3.79775 8.12149 3.89379C8.18874 3.98982 8.27424 4.07166 8.37311 4.13465C8.47199 4.19764 8.5823 4.24054 8.69775 4.26089Z" fill="#BBBABA"/>
<path d="M6.5332 6.3226C7.42235 6.22255 7.4248 6.33893 7.18138 7.71939L6.32076 12.6003C6.11597 13.7616 7.75035 13.6721 9.14202 13.1095C9.19876 13.0876 9.24558 13.0459 9.27368 12.992C9.30179 12.9381 9.30924 12.8758 9.29465 12.8167C9.28005 12.7577 9.24441 12.7061 9.19441 12.6715C9.14442 12.6369 9.08352 12.6218 9.02316 12.629C8.13399 12.729 8.13156 12.6126 8.37496 11.2322L9.2356 6.35124C9.44038 5.18994 7.80604 5.27947 6.41435 5.8421C6.35761 5.86391 6.31079 5.90569 6.28269 5.95959C6.25458 6.01349 6.24713 6.0758 6.26172 6.13481C6.27632 6.19382 6.31196 6.24546 6.36196 6.28004C6.41195 6.31462 6.47284 6.32976 6.5332 6.3226Z" fill="#BBBABA"/>
<path d="M8 16C9.58226 16 11.129 15.5308 12.4446 14.6518C13.7602 13.7727 14.7855 12.5233 15.391 11.0615C15.9965 9.59967 16.155 7.99113 15.8463 6.43928C15.5376 4.88744 14.7757 3.46197 13.6569 2.34315C12.538 1.22433 11.1126 0.462403 9.56073 0.153721C8.00888 -0.15496 6.40035 0.00346629 4.93854 0.608968C3.47673 1.21447 2.2273 2.23985 1.34824 3.55544C0.469192 4.87104 0 6.41776 0 8.00001C0 10.1217 0.842855 12.1566 2.34315 13.6569C3.84344 15.1572 5.87827 16 8 16ZM8 0.888893C9.40645 0.888893 10.7813 1.30595 11.9507 2.08733C13.1201 2.86871 14.0316 3.97932 14.5698 5.2787C15.108 6.57809 15.2489 8.0079 14.9745 9.38732C14.7001 10.7667 14.0228 12.0338 13.0283 13.0283C12.0338 14.0228 10.7667 14.7001 9.38731 14.9745C8.00789 15.2489 6.57808 15.108 5.2787 14.5698C3.97931 14.0316 2.86871 13.1201 2.08733 11.9507C1.30595 10.7813 0.888889 9.40645 0.888889 8.00001C0.891018 6.11468 1.64091 4.30717 2.97404 2.97404C4.30717 1.64091 6.11467 0.891022 8 0.888893Z" fill="#BBBABA"/>
</svg>
