<svg width="14" height="14" viewBox="0 0 14 14" fill="none" xmlns="http://www.w3.org/2000/svg">
<path fill-rule="evenodd" clip-rule="evenodd" d="M6.99992 1.66668C5.79808 1.66616 4.6313 2.07158 3.68873 2.81722C2.74616 3.56286 2.08306 4.605 1.80694 5.77469C1.53083 6.94438 1.65787 8.17304 2.16748 9.26148C2.67709 10.3499 3.53939 11.2343 4.61459 11.7713C4.77274 11.8506 4.89296 11.9894 4.94878 12.1572C5.0046 12.325 4.99146 12.5082 4.91225 12.6663C4.83304 12.8245 4.69425 12.9447 4.5264 13.0005C4.35856 13.0564 4.17541 13.0432 4.01725 12.964C2.90994 12.4101 1.97876 11.5587 1.32808 10.5053C0.677401 9.45193 0.332923 8.23816 0.333252 7.00001C0.333252 3.31801 3.31792 0.333344 6.99992 0.333344C10.6819 0.333344 13.6666 3.31801 13.6666 7.00001C13.6669 8.23816 13.3224 9.45193 12.6718 10.5053C12.0211 11.5587 11.0899 12.4101 9.98258 12.964C9.90427 13.0032 9.819 13.0266 9.73164 13.0329C9.64428 13.0392 9.55654 13.0282 9.47344 13.0005C9.39033 12.9729 9.31348 12.9292 9.24727 12.8718C9.18107 12.8145 9.12681 12.7447 9.08758 12.6663C9.04836 12.588 9.02495 12.5028 9.01868 12.4154C9.01242 12.328 9.02342 12.2403 9.05106 12.1572C9.0787 12.0741 9.12244 11.9972 9.17978 11.931C9.23712 11.8648 9.30694 11.8106 9.38525 11.7713C10.4604 11.2343 11.3227 10.3499 11.8324 9.26148C12.342 8.17304 12.469 6.94438 12.1929 5.77469C11.9168 4.605 11.2537 3.56286 10.3111 2.81722C9.36854 2.07158 8.20176 1.66616 6.99992 1.66668ZM6.99992 4.33334C6.39888 4.33293 5.81533 4.53558 5.3439 4.90842C4.87248 5.28126 4.54083 5.80242 4.40275 6.38739C4.26468 6.97235 4.32826 7.58681 4.5832 8.1311C4.83813 8.6754 5.26947 9.11761 5.80725 9.38601C5.96124 9.46748 6.07722 9.60599 6.13037 9.77189C6.18352 9.9378 6.16961 10.1179 6.09164 10.2737C6.01366 10.4295 5.8778 10.5485 5.71313 10.6054C5.54847 10.6623 5.36809 10.6525 5.21059 10.578C4.4048 10.1749 3.75871 9.51153 3.37698 8.69538C2.99526 7.87924 2.90025 6.95813 3.10736 6.08125C3.31447 5.20438 3.81155 4.42311 4.5181 3.864C5.22464 3.3049 6.09925 3.00071 7.00025 3.00071C7.90125 3.00071 8.77586 3.3049 9.48241 3.864C10.1889 4.42311 10.686 5.20438 10.8931 6.08125C11.1003 6.95813 11.0052 7.87924 10.6235 8.69538C10.2418 9.51153 9.59571 10.1749 8.78992 10.578C8.63204 10.6556 8.44989 10.6676 8.28317 10.6115C8.11644 10.5554 7.97866 10.4356 7.89985 10.2784C7.82104 10.1211 7.80758 9.93905 7.86241 9.7719C7.91725 9.60474 8.03593 9.46604 8.19258 9.38601C8.73037 9.11761 9.1617 8.6754 9.41664 8.1311C9.67158 7.58681 9.73516 6.97235 9.59708 6.38739C9.459 5.80242 9.12736 5.28126 8.65593 4.90842C8.18451 4.53558 7.60096 4.33293 6.99992 4.33334ZM5.66658 7.00001C5.66658 6.64639 5.80706 6.30725 6.05711 6.0572C6.30716 5.80715 6.6463 5.66668 6.99992 5.66668C7.35354 5.66668 7.69268 5.80715 7.94273 6.0572C8.19278 6.30725 8.33325 6.64639 8.33325 7.00001C8.33325 7.35363 8.19278 7.69277 7.94273 7.94282C7.69268 8.19287 7.35354 8.33334 6.99992 8.33334C6.6463 8.33334 6.30716 8.19287 6.05711 7.94282C5.80706 7.69277 5.66658 7.35363 5.66658 7.00001Z" fill="white"/>
</svg>
