<svg width="16" height="16" viewBox="0 0 16 16" fill="none" xmlns="http://www.w3.org/2000/svg">
<path fill-rule="evenodd" clip-rule="evenodd" d="M2.45003 6.75999H12.04C12.16 6.75999 12.27 6.80999 12.36 6.89999L13.88 8.45999C14.16 8.74999 13.96 9.23999 13.56 9.23999H3.97003C3.85003 9.23999 3.74003 9.18999 3.65003 9.09999L2.13003 7.53999C1.85003 7.24999 2.05003 6.75999 2.45003 6.75999ZM2.13003 4.68999L3.65003 3.12999C3.73003 3.03999 3.85003 2.98999 3.97003 2.98999H13.55C13.95 2.98999 14.15 3.47999 13.87 3.76999L12.36 5.32999C12.28 5.41999 12.16 5.46999 12.04 5.46999H2.45003C2.05003 5.46999 1.85003 4.97999 2.13003 4.68999ZM13.87 11.3L12.35 12.86C12.26 12.95 12.15 13 12.03 13H2.45003C2.05003 13 1.85003 12.51 2.13003 12.22L3.65003 10.66C3.73003 10.57 3.85003 10.52 3.97003 10.52H13.55C13.95 10.52 14.15 11.01 13.87 11.3Z" fill="white"/>
</svg>
